HIERARCHY
ROOT Hips
{
	OFFSET 0.000000 0.000000 0.000000
	CHANNELS 6 Xposition Yposition Zposition Xrotation Yrotation Zrotation
	JOINT LeftUpLeg_virtual
	{
		OFFSET 0.000000 0.000000 0.000000
		CHANNELS 3 Xrotation Yrotation Zrotation
		JOINT LeftUpLeg
		{
			OFFSET 11.394100 -6.187798 -0.413800
			CHANNELS 3 Xrotation Yrotation Zrotation
			JOINT LeftLeg
			{
				OFFSET 0.430247 -32.302673 3.732800
				CHANNELS 3 Xrotation Yrotation Zrotation
				JOINT LeftFoot
				{
					OFFSET -0.430247 -48.264931 -6.423300
					CHANNELS 3 Xrotation Yrotation Zrotation
					JOINT LeftToeBase
					{
						OFFSET 4.230900 -16.068199 23.438400
						CHANNELS 3 Xrotation Yrotation Zrotation
						JOINT LeftToe_End
						{
							OFFSET 4.510700 0.695400 19.974600
							CHANNELS 3 Xrotation Yrotation Zrotation
							End Site
							{
								OFFSET 0 0 0
							}
						}
					}
				}
			}
		}
	}
	JOINT RightUpLeg_virtual
	{
		OFFSET 0.000000 0.000000 0.000000
		CHANNELS 3 Xrotation Yrotation Zrotation
		JOINT RightUpLeg
		{
			OFFSET -11.333700 -6.187798 -0.413800
			CHANNELS 3 Xrotation Yrotation Zrotation
			JOINT RightLeg
			{
				OFFSET -0.430392 -32.302628 3.733000
				CHANNELS 3 Xrotation Yrotation Zrotation
				JOINT RightFoot
				{
					OFFSET 0.430392 -48.264973 -6.423500
					CHANNELS 3 Xrotation Yrotation Zrotation
					JOINT RightToeBase
					{
						OFFSET -4.230900 -16.068199 23.438400
						CHANNELS 3 Xrotation Yrotation Zrotation
						JOINT RightToe_End
						{
							OFFSET -4.510700 0.695400 19.974600
							CHANNELS 3 Xrotation Yrotation Zrotation
							End Site
							{
								OFFSET 0 0 0
							}
						}
					}
				}
			}
		}
	}
	JOINT Spine_virtual
	{
		OFFSET 0.000000 0.000000 0.000000
		CHANNELS 3 Xrotation Yrotation Zrotation
		JOINT Spine
		{
			OFFSET -0.002400 12.777504 0.315300
			CHANNELS 3 Xrotation Yrotation Zrotation
			JOINT Spine1
			{
				OFFSET -0.002067 5.816869 0.032633
				CHANNELS 3 Xrotation Yrotation Zrotation
				JOINT Spine1_split
				{
					OFFSET -0.002067 5.816869 0.032633
					CHANNELS 3 Xrotation Yrotation Zrotation
					JOINT Spine2
					{
						OFFSET -0.002067 5.816869 0.032633
						CHANNELS 3 Xrotation Yrotation Zrotation
						JOINT Neck_virtual
						{
							OFFSET 0.000000 0.000000 0.000000
							CHANNELS 3 Xrotation Yrotation Zrotation
							JOINT Neck
							{
								OFFSET -0.003700 21.199493 -0.826900
								CHANNELS 3 Xrotation Yrotation Zrotation
								JOINT Head
								{
									OFFSET 0.000000 20.442200 4.834800
									CHANNELS 3 Xrotation Yrotation Zrotation
									JOINT HeadTop_End
									{
										OFFSET 0.000000 34.668396 4.968400
										CHANNELS 3 Xrotation Yrotation Zrotation
										End Site
										{
											OFFSET 0 0 0
										}
									}
								}
							}
						}
						JOINT LeftShoulder_virtual
						{
							OFFSET 0.000000 0.000000 0.000000
							CHANNELS 3 Xrotation Yrotation Zrotation
							JOINT LeftShoulder
							{
								OFFSET 3.288150 8.794197 -1.372250
								CHANNELS 3 Xrotation Yrotation Zrotation
								JOINT LeftShoulder_split
								{
									OFFSET 3.288150 8.794197 -1.372250
									CHANNELS 3 Xrotation Yrotation Zrotation
									JOINT LeftArm
									{
										OFFSET 11.953299 -2.279007 -0.146200
										CHANNELS 3 Xrotation Yrotation Zrotation
										JOINT LeftForeArm
										{
											OFFSET 18.448900 0.000000 0.000000
											CHANNELS 3 Xrotation Yrotation Zrotation
											JOINT LeftHand
											{
												OFFSET 29.527798 0.000000 0.000000
												CHANNELS 3 Xrotation Yrotation Zrotation
												End Site
												{
													OFFSET 0 0 0
												}
											}
										}
									}
								}
							}
						}
						JOINT RightShoulder_virtual
						{
							OFFSET 0.000000 0.000000 0.000000
							CHANNELS 3 Xrotation Yrotation Zrotation
							JOINT RightShoulder
							{
								OFFSET -3.249400 8.794197 -1.372250
								CHANNELS 3 Xrotation Yrotation Zrotation
								JOINT RightShoulder_split
								{
									OFFSET -3.249400 8.794197 -1.372250
									CHANNELS 3 Xrotation Yrotation Zrotation
									JOINT RightArm
									{
										OFFSET -11.953299 -2.279007 -0.146200
										CHANNELS 3 Xrotation Yrotation Zrotation
										JOINT RightForeArm
										{
											OFFSET -18.448900 0.000000 0.000000
											CHANNELS 3 Xrotation Yrotation Zrotation
											JOINT RightHand
											{
												OFFSET -29.527802 0.000000 0.000000
												CHANNELS 3 Xrotation Yrotation Zrotation
												End Site
												{
													OFFSET 0 0 0
												}
											}
										}
									}
								}
							}
						}
					}
				}
			}
		}
	}
}
MOTION
Frames: 5
Frame Time: 0.03333333
-0.671507 112.818695 176.130035 0.000000 0.000000 0.000000 13.957523 23.092432 -3.038850 -15.173581 7.590370 12.184063 34.790142 23.328704 -1.563732 20.437550 -3.671074 -12.654332 -54.169711 6.627742 -7.535246 0.000000 0.000000 0.000000 14.698601 23.891606 -2.530571 -54.240940 -9.043581 -12.179600 33.927920 -1.878210 1.406186 24.430280 -3.280943 8.431355 -8.950391 7.164848 -22.838252 0.000000 0.000000 0.000000 14.437802 24.429715 -3.262259 10.156886 -3.081335 12.722157 -10.989116 -4.568621 -2.436559 -0.079855 -0.316917 -0.139824 0.000000 0.000000 0.000000 -4.150002 -1.074596 -0.086443 3.485367 33.203704 -17.806505 -34.700694 -32.242304 -21.683884 0.000000 0.000000 0.000000 -6.215688 -2.348342 -2.273186 18.975867 -7.048786 36.262775 3.256826 3.370558 1.899397 -68.089678 -11.770433 16.882004 -33.352084 -20.654050 -5.348331 0.000000 0.000000 0.000000 -6.143859 -2.071494 1.917093 -1.055147 -1.970040 -39.991919 9.326474 -4.739803 -5.541151 -109.598602 13.345017 18.660075 -62.369094 51.124745 51.815864 0.000000 0.000000 0.000000 
-0.840979 108.666412 184.473557 0.000000 0.000000 0.000000 10.852646 25.699613 -3.108636 -15.135144 6.190975 13.592530 37.357969 25.186268 -3.533109 19.964952 -3.824983 -11.326906 -54.690202 8.396226 -10.700268 0.000000 0.000000 0.000000 11.644460 26.225643 -2.806469 -55.760937 -9.159124 -11.923489 37.147220 -2.480452 0.808523 19.665682 -2.203553 3.043686 -5.316437 4.497996 -25.217105 0.000000 0.000000 0.000000 11.937117 26.486055 -3.463390 9.819140 -3.787761 12.269469 -10.915484 -5.105087 -2.390332 -0.005242 -0.007216 -0.137538 0.000000 0.000000 0.000000 -4.343429 -1.599161 -0.457757 3.929430 34.530298 -16.995734 -33.219540 -31.387393 -19.601082 0.000000 0.000000 0.000000 -6.032308 -3.015596 -2.128075 19.518927 -7.329028 37.149553 2.434204 3.305557 2.999343 -65.536348 -8.860337 21.031085 -35.294077 -18.282246 -5.759788 0.000000 0.000000 0.000000 -6.189352 -2.576535 1.789683 -0.492875 -1.381868 -41.104895 9.327072 -5.000586 -4.588932 -105.996155 15.490297 13.601579 -52.944006 48.813624 40.873638 0.000000 0.000000 0.000000 
-1.022784 105.447189 192.292999 0.000000 0.000000 0.000000 7.697170 28.385901 -2.997934 -17.531385 6.310416 14.769302 39.918586 26.640741 -5.496247 16.722885 -3.789733 -8.292037 -47.251372 9.163051 -14.340836 0.000000 0.000000 0.000000 8.664533 28.589113 -2.934305 -55.760384 -10.156926 -11.572827 36.779910 -3.345967 0.087764 17.578631 -1.104055 -0.682344 -4.379484 2.538495 -26.270419 0.000000 0.000000 0.000000 9.433705 28.743629 -3.754340 9.434834 -4.361039 11.710784 -10.474885 -5.531033 -2.056589 0.127996 0.311603 -0.152192 0.000000 0.000000 0.000000 -4.265607 -2.021083 -0.599149 3.840764 35.704117 -16.139570 -31.940563 -30.914577 -18.138044 0.000000 0.000000 0.000000 -5.375642 -3.626519 -1.602008 19.803290 -7.448439 38.045728 2.255642 2.782921 3.709824 -62.066305 -5.163937 24.883448 -37.060709 -16.033188 -6.030436 0.000000 0.000000 0.000000 -5.890780 -3.132780 1.729616 0.303706 -0.849873 -41.506021 9.035729 -5.520353 -3.689955 -101.007351 16.777820 8.461956 -46.678974 46.439067 33.354604 0.000000 0.000000 0.000000 
-1.226462 103.724220 199.939743 0.000000 0.000000 0.000000 5.095201 31.232092 -2.994879 -21.282866 7.514380 15.414016 40.739852 26.642995 -6.599575 12.703883 -5.008309 -4.599343 -38.219464 7.854690 -15.538822 0.000000 0.000000 0.000000 6.171218 31.158343 -3.158162 -53.879182 -11.954677 -10.912293 32.565785 -4.275660 -0.799696 17.635625 -0.129717 -2.679592 -5.713619 1.287841 -26.263771 0.000000 0.000000 0.000000 7.333760 30.979587 -4.176347 8.720864 -4.938783 11.068415 -9.821700 -5.788656 -1.536379 0.201644 0.512985 -0.170537 0.000000 0.000000 0.000000 -3.968714 -2.275079 -0.553282 3.876901 36.639150 -15.578796 -30.604367 -30.867872 -17.256671 0.000000 0.000000 0.000000 -4.437719 -4.116887 -0.767074 19.871757 -7.366956 39.148909 2.334136 2.137689 4.125567 -59.302475 -1.199027 27.522532 -38.547224 -15.202596 -6.489568 0.000000 0.000000 0.000000 -5.357139 -3.646487 1.710822 1.092833 -0.494311 -41.170137 9.247167 -5.864724 -2.929875 -95.864355 16.530822 3.702442 -44.728826 46.481951 30.734526 0.000000 0.000000 0.000000 
-1.421264 103.624039 207.457138 0.000000 0.000000 0.000000 3.475443 34.018181 -3.238055 -25.273665 9.647506 15.622637 39.161655 24.628171 -6.404827 10.081862 -7.690171 -0.848120 -32.586990 5.448344 -13.131892 0.000000 0.000000 0.000000 4.348707 33.981844 -3.562845 -50.015904 -14.669950 -9.817636 25.779202 -5.668876 -1.780468 18.401969 0.099207 -3.989290 -7.866287 0.443750 -25.525662 0.000000 0.000000 0.000000 5.683771 32.882276 -4.589801 7.464667 -5.608203 10.357010 -9.198229 -5.839194 -1.017067 0.237280 0.689216 -0.255055 0.000000 0.000000 0.000000 -3.599507 -2.353492 -0.460054 4.567128 37.351156 -15.573589 -29.110638 -31.225641 -16.902869 0.000000 0.000000 0.000000 -3.534468 -4.433456 0.132995 19.731722 -7.165761 40.330662 2.565027 1.597108 4.386808 -58.373290 1.933509 28.667103 -39.843297 -16.234214 -7.403172 0.000000 0.000000 0.000000 -4.772339 -4.078097 1.669090 1.781557 -0.318230 -40.228250 9.737029 -6.356140 -2.554937 -91.628094 14.822192 -0.078938 -46.139758 48.674865 32.177615 0.000000 0.000000 0.000000 
